# xmcd
# 
# Track frame offsets:
#     150
#     29527
#     47145
#     68726
#     92668
#     112106
#     145450
#     157317
#     178854
#     192579
#     211062
#     235295
#     257577
#     291664
#     316624
# 
# Disc length: 4455
# 
# Revision: 2
# Processed by: cddbd v1.5.2PL0 Copyright (c) Steve Scherf et al.
# Submitted via: fre:ac v1.0.31
# 
DISCID=ea11650f
DTITLE=Peter Gabriel - Miss Disc 2
DYEAR=2003
DGENRE=Rock/Pop
TTITLE0=San Jacinto
TTITLE1=No Self-Control
TTITLE2=Cloudless
TTITLE3=The Rhythm Of The Heat
TTITLE4=I Have The Touch
TTITLE5=I Grieve
TTITLE6=D.I.Y.
TTITLE7=A Different Drum
TTITLE8=The Drop
TTITLE9=The Tower That Ate People
TTITLE10=Lovetown
TTITLE11=Father, Son
TTITLE12=Signal To Noise
TTITLE13=Downside Up (Live)
TTITLE14=Washing Of The Water
EXTD=
EXTT0=
EXTT1=
EXTT2=
EXTT3=
EXTT4=
EXTT5=
EXTT6=
EXTT7=
EXTT8=
EXTT9=
EXTT10=
EXTT11=
EXTT12=
EXTT13=
EXTT14=
PLAYORDER=
